<?xml version="1.0" encoding="utf-8"?>
<!-- Generator: Adobe Illustrator 21.0.2, SVG Export Plug-In . SVG Version: 6.00 Build 0)  -->
<svg version="1.1" id="Layer_1" xmlns="http://www.w3.org/2000/svg" xmlns:xlink="http://www.w3.org/1999/xlink" x="0px" y="0px"
	 viewBox="0 0 224.5 224.5" style="enable-background:new 0 0 224.5 224.5;" xml:space="preserve">
<style type="text/css">
	.st0{fill:none;stroke:#FFFFFF;stroke-width:3.9801;stroke-miterlimit:10;}
	.st1{fill:#2B334A;}
	.st2{fill:none;stroke:#2B334A;stroke-width:2.1089;stroke-linecap:round;stroke-linejoin:round;stroke-miterlimit:10;}
	.st3{fill:none;stroke:#FFFFFF;stroke-width:2.1089;stroke-linecap:round;stroke-linejoin:round;stroke-miterlimit:10;}
	.st4{fill:none;stroke:#F3DF4E;stroke-width:2.1089;stroke-linecap:round;stroke-linejoin:round;stroke-miterlimit:10;}
</style>
<g>
	<g>
		<circle class="st0" cx="112.3" cy="112.3" r="88.9"/>
		<circle class="st0" cx="112.3" cy="112.3" r="110.3"/>
	</g>
	<g>
		<path class="st1" d="M110.3,177.6l-55.6-19.5V67.3l55.6,19.5c1.8,0.6,3.8,0.6,5.6,0l55.6-19.5v90.8l-55.6,19.5
			C114.1,178.2,112.1,178.2,110.3,177.6z"/>
		<path class="st2" d="M60,64l50.3,17.7c1.8,0.6,3.8,0.6,5.6,0L166.2,64"/>
		<path class="st2" d="M65.3,60l45.1,15.8c1.8,0.6,3.8,0.6,5.6,0L161,60"/>
		<line class="st3" x1="105.4" y1="94.5" x2="105.4" y2="168.4"/>
		<line class="st3" x1="116.3" y1="94.5" x2="116.3" y2="168.4"/>
		<line class="st4" x1="128" y1="102.7" x2="159" y2="91.8"/>
		<line class="st4" x1="128" y1="110.1" x2="159" y2="99.2"/>
		<line class="st4" x1="128" y1="117.4" x2="159" y2="106.5"/>
	</g>
</g>
</svg>
