<?xml version="1.0" encoding="utf-8"?>
<!-- Generator: Adobe Illustrator 21.0.0, SVG Export Plug-In . SVG Version: 6.00 Build 0)  -->
<svg version="1.1" id="Layer_1" xmlns="http://www.w3.org/2000/svg" xmlns:xlink="http://www.w3.org/1999/xlink" x="0px" y="0px"
	 viewBox="0 0 224.5 224.5" style="enable-background:new 0 0 224.5 224.5;" xml:space="preserve">
<style type="text/css">
	.st0{fill:none;stroke:#FFFFFF;stroke-width:3.9801;stroke-miterlimit:10;}
	.st1{fill:#2C334A;}
	.st2{fill:none;stroke:#FFFFFF;stroke-width:1.5966;stroke-miterlimit:10;}
	.st3{fill:none;stroke:#F3DF4E;stroke-width:7.1812;stroke-linecap:round;stroke-linejoin:round;stroke-miterlimit:10;}
</style>
<g>
	<g>
		<circle class="st0" cx="112.3" cy="112.3" r="88.9"/>
		<circle class="st0" cx="112.3" cy="112.3" r="110.3"/>
	</g>
	<g>
		<g>
			<path class="st1" d="M153.2,67.7H146v4.8c0,4.2-3.4,7.6-7.6,7.6c-4.2,0-7.6-3.4-7.6-7.6v-4.8H94.1v4.8c0,4.2-3.4,7.6-7.6,7.6
				c-4.2,0-7.6-3.4-7.6-7.6v-4.8h-7.6c-5.3,0-9.6,4.3-9.6,9.6v81.8c0,5.3,4.3,9.6,9.6,9.6h81.8c5.3,0,9.6-4.3,9.6-9.6V77.2
				C162.8,72,158.4,67.7,153.2,67.7z"/>
			<path class="st1" d="M86.5,77.2L86.5,77.2c-2.6,0-4.8-2.2-4.8-4.8V62.1c0-2.6,2.2-4.8,4.8-4.8h0c2.6,0,4.8,2.2,4.8,4.8v10.4
				C91.3,75.1,89.2,77.2,86.5,77.2z"/>
			<path class="st1" d="M138.4,77.2L138.4,77.2c-2.6,0-4.8-2.2-4.8-4.8V62.1c0-2.6,2.2-4.8,4.8-4.8h0c2.6,0,4.8,2.2,4.8,4.8v10.4
				C143.2,75.1,141,77.2,138.4,77.2z"/>
			<line class="st2" x1="61.8" y1="89.6" x2="162.8" y2="89.6"/>
		</g>
		<polyline class="st3" points="136.8,107.4 105.5,151.1 87.3,125.8 		"/>
	</g>
</g>
</svg>
