<?xml version="1.0" encoding="utf-8"?>
<!-- Generator: Adobe Illustrator 18.1.1, SVG Export Plug-In . SVG Version: 6.00 Build 0)  -->
<svg version="1.1" id="Layer_1" xmlns="http://www.w3.org/2000/svg" xmlns:xlink="http://www.w3.org/1999/xlink" x="0px" y="0px"
	 width="800px" height="499.8px" viewBox="0 0 800 499.8" enable-background="new 0 0 800 499.8" xml:space="preserve">
<g>
	<g>
		<path fill="#D0B45F" d="M476.5,155.4c-0.4-4.1-0.5-8.2-0.5-12.3c0-4.1,0.2-8.2,0.6-12.3c10.9,2.1,22.1,3.2,33.3,3.2
			c11.8,0,23.2-1.2,34.4-3.3c-0.3-3.6-0.7-7.2-1.3-10.7c-10.7,2.1-21.8,3.3-33.1,3.3c-10.8,0-21.5-1.1-32-3.1c1-6.1,2.4-12,4.2-17.7
			c9,1.7,18.3,2.6,27.8,2.6c9.9,0,19.6-1,29-2.8c-1-3.5-2.2-6.9-3.4-10.3c-8.3,1.5-16.8,2.4-25.6,2.4c-8.3,0-16.3-0.8-24.2-2.1
			c6.1-15.4,14.8-29.5,25.6-41.7c-2.3-2.8-4.7-5.4-7.2-8c-12.4,13.7-22.3,29.8-29,47.4c-5.9-1.5-11.7-3.5-17.3-5.8
			c7.5-20.1,18.8-38.3,32.9-53.9c-2.8-2.2-5.7-4.4-8.6-6.4c-14.6,16.3-26.2,35.2-34.1,56c-6.7-3.3-13.1-7.2-19.1-11.5
			c13.9-17,24.5-36.3,31.3-56.8c-3.2-1.5-6.5-2.9-9.9-4.1c-6.4,19.7-16.5,38.2-29.9,54.4c-4.7-3.9-9.1-8.2-13.3-12.7
			c11.2-13.8,19.9-29.7,25.6-46.9c-3.5-0.8-7-1.5-10.6-2.1c-5.1,14.8-12.6,28.5-22,40.6c-9.5-12.1-17-25.8-22-40.6
			c-3.6,0.5-7.1,1.3-10.6,2.1c5.7,17.2,14.5,33.1,25.6,46.9c-4.1,4.5-8.6,8.8-13.3,12.7C366.4,45.4,356.3,27,349.8,7.3
			c-3.4,1.2-6.7,2.6-9.9,4.1c6.8,20.6,17.4,39.8,31.3,56.8c-6,4.3-12.4,8.2-19.1,11.5c-7.9-21-19.6-39.9-34-56c-3,2-5.8,4.2-8.6,6.4
			c14,15.5,25.3,33.7,32.8,54c-5.6,2.3-11.4,4.2-17.4,5.8c-6.7-17.6-16.6-33.7-29-47.4c-2.5,2.6-4.9,5.3-7.2,8
			c10.8,12.2,19.6,26.2,25.6,41.7c-7.9,1.4-15.9,2.1-24.2,2.1c-8.7,0-17.3-0.8-25.6-2.4c-1.3,3.4-2.4,6.8-3.4,10.3
			c9.4,1.8,19.1,2.8,29,2.8c9.5,0,18.8-0.9,27.8-2.6c1.8,5.8,3.1,11.7,4.2,17.7c-10.5,2-21.2,3.1-32,3.1c-11.3,0-22.4-1.1-33.1-3.3
			c-0.6,3.5-1,7.1-1.3,10.7c11.1,2.2,22.6,3.3,34.4,3.3c11.2,0,22.4-1.1,33.3-3.2c0.4,4.1,0.6,8.1,0.6,12.3c0,4.1-0.2,8.2-0.5,12.3
			c-10.9-2.1-22.1-3.2-33.3-3.2c-11.8,0-23.2,1.2-34.4,3.3c0.3,3.6,0.7,7.2,1.3,10.7c10.7-2.1,21.8-3.3,33.1-3.3
			c10.8,0,21.5,1.1,32,3.1c-1,6-2.4,11.9-4.2,17.7c-9.1-1.7-18.4-2.6-27.8-2.6c-9.9,0-19.6,1-29,2.8c1,3.5,2.2,6.9,3.4,10.3
			c8.3-1.5,16.8-2.4,25.6-2.4c31.3,0,60.9,10.1,85.6,29.4l4,3.1l3.3-3.8c5.2-6,10.9-11.6,16.9-16.7c2.5,2.1,4.9,4.3,7.3,6.6
			c3.3,3.2,6.6,6.7,9.7,10.2l3.3,3.8l4-3.1c24.7-19.2,54.3-29.4,85.6-29.4c8.7,0,17.3,0.8,25.6,2.4c1.3-3.4,2.4-6.8,3.4-10.3
			c-9.4-1.8-19.1-2.8-29-2.8c-9.5,0-18.8,0.9-27.9,2.6c-1.8-5.8-3.2-11.7-4.1-17.7c10.5-2,21.2-3.1,32-3.1c11.3,0,22.4,1.1,33.1,3.3
			c0.6-3.5,1-7.1,1.3-10.7c-11.1-2.2-22.6-3.3-34.4-3.3C498.6,152.3,487.5,153.4,476.5,155.4z M466,157.8c-6,1.5-11.9,3.4-17.8,5.5
			c-0.8-6.6-1.2-13.4-1.2-20.1c0-6.8,0.5-13.5,1.2-20.1c5.8,2.1,11.7,4,17.7,5.5c-0.5,4.8-0.7,9.7-0.7,14.6
			C465.3,148,465.5,152.9,466,157.8z M400,190c-11.7-9.1-24.5-16.7-38-22.6c1.1-8,1.7-16.1,1.7-24.2c0-6.1-0.3-12.1-0.9-18.1
			c19.7,8.1,38,19,54.6,32.5c4.8,3.9,9.5,8.1,13.9,12.3c0.1,0.1,0.3,0.3,0.4,0.4C420.5,175.7,409.9,182.3,400,190z M437.2,160.7
			c-4.2-4-8.6-7.9-13-11.5c-16.9-13.8-35.5-25-55.4-33.4c11-5.4,21.5-11.9,31.3-19.5c11.7,9.1,24.5,16.7,38,22.6
			c-1.1,7.9-1.7,16-1.7,24.2C436.3,149,436.6,154.9,437.2,160.7z M471.6,100.1c-1.7,5.8-3.1,11.7-4.1,17.7
			c-5.9-1.5-11.8-3.4-17.5-5.6c1.1-6.1,2.6-12,4.3-17.9C459.9,96.6,465.7,98.5,471.6,100.1z M400,57.1
			c12.6,13.5,27.6,24.7,44.4,32.9c-1.8,5.9-3.3,11.9-4.6,18c-13-5.9-25.2-13.5-36.4-22.6l-3.4-2.8l-3.4,2.8
			c-11.2,9.1-23.4,16.7-36.4,22.6c-0.6-2.8-1.2-5.6-1.9-8.4c-0.8-3.2-1.7-6.5-2.7-9.6C372.4,81.8,387.4,70.6,400,57.1z M328.4,100.1
			c5.9-1.6,11.7-3.5,17.3-5.8c0.8,2.6,1.5,5.3,2.2,7.9c0.8,3.3,1.5,6.6,2.1,10c-5.7,2.2-11.6,4.1-17.5,5.6
			C331.5,111.8,330.1,105.9,328.4,100.1z M334,128.5c6-1.5,11.9-3.4,17.8-5.5c0.8,6.7,1.2,13.4,1.2,20.1c0,6.8-0.4,13.5-1.2,20.1
			c-5.8-2.1-11.8-4-17.8-5.5c0.5-4.8,0.7-9.7,0.7-14.6C334.7,138.2,334.5,133.3,334,128.5z M332.6,168.4c5.9,1.5,11.8,3.4,17.5,5.6
			c-1.1,6-2.5,11.9-4.3,17.8c-5.6-2.3-11.4-4.2-17.3-5.7C330.2,180.3,331.6,174.4,332.6,168.4z M378.3,209.8
			c-7.2-5.2-14.8-9.8-22.7-13.6c1.8-5.9,3.4-11.9,4.6-17.9c11,5,21.5,11.3,31.3,18.7C386.9,201,382.5,205.3,378.3,209.8z
			 M421.7,209.8c-2.2-2.4-4.6-4.8-6.9-7.1c-2-2-4.1-3.9-6.3-5.8c9.8-7.4,20.3-13.6,31.3-18.7c1.2,6.1,2.7,12,4.6,17.9
			C436.5,200.1,428.9,204.6,421.7,209.8z M471.5,186.1c-5.9,1.5-11.7,3.4-17.3,5.7c-1.8-5.8-3.2-11.8-4.3-17.8
			c5.7-2.2,11.6-4.1,17.5-5.6C468.4,174.4,469.8,180.3,471.5,186.1z"/>
		<g>
			<g>
				<path fill="#D0B45F" stroke="#D0B45F" stroke-width="0.15" stroke-miterlimit="10" d="M164.3,460.9h-13.1l-2.7,7.1h-1.7
					l10.2-25.8h1.7l10.2,25.8h-1.7L164.3,460.9z M151.8,459.4h11.9l-6-15.4L151.8,459.4z"/>
				<path fill="#D0B45F" stroke="#D0B45F" stroke-width="0.15" stroke-miterlimit="10" d="M189.2,443.7V468h-1.6v-24.3h-8.4v-1.5
					h18.5v1.5H189.2z"/>
				<path fill="#D0B45F" stroke="#D0B45F" stroke-width="0.15" stroke-miterlimit="10" d="M220.7,443.7V468H219v-24.3h-8.4v-1.5
					h18.5v1.5H220.7z"/>
				<path fill="#D0B45F" stroke="#D0B45F" stroke-width="0.15" stroke-miterlimit="10" d="M263.2,455.1c0,7.2-2.8,13.3-10.7,13.3
					s-10.6-6.1-10.6-13.3c0-7.3,2.8-13.3,10.6-13.3S263.2,447.8,263.2,455.1z M261.5,455.1c0-6.5-2.2-11.8-9-11.8
					c-6.7,0-8.9,5.3-8.9,11.8c0,6.5,2.2,11.8,8.9,11.8C259.3,466.9,261.5,461.6,261.5,455.1z"/>
				<path fill="#D0B45F" stroke="#D0B45F" stroke-width="0.15" stroke-miterlimit="10" d="M289.3,456.4h-7.6V468h-1.6v-25.8h9.1
					c4.9,0,9.2,1.7,9.2,7.1c0,4.9-3.4,6.7-7.4,7.1l7.5,11.6h-1.9L289.3,456.4z M289.5,443.7h-7.7v11.3h7.5c4.4,0,7.4-1.6,7.4-5.6
					S293.6,443.7,289.5,443.7z"/>
				<path fill="#D0B45F" stroke="#D0B45F" stroke-width="0.15" stroke-miterlimit="10" d="M316.7,444.7V468h-1.6v-25.8h1.7
					l15.1,23.4v-23.4h1.6V468h-1.7L316.7,444.7z"/>
				<path fill="#D0B45F" stroke="#D0B45F" stroke-width="0.15" stroke-miterlimit="10" d="M351.7,468v-25.8h15.2v1.5h-13.5v10.7
					h11.2v1.5h-11.2v10.7h13.8v1.5H351.7z"/>
				<path fill="#D0B45F" stroke="#D0B45F" stroke-width="0.15" stroke-miterlimit="10" d="M390,457.7l-9.5-15.6h1.8l8.5,14.3
					l8.5-14.3h1.8l-9.6,15.6V468H390V457.7z"/>
				<path fill="#D0B45F" stroke="#D0B45F" stroke-width="0.15" stroke-miterlimit="10" d="M431.8,461.7c0,4.8-4.4,6.7-8.2,6.7
					c-3.5,0-7.2-1.6-9.5-2.9l0.8-1.3c2.3,1.3,5.7,2.8,8.8,2.8c3.3,0,6.5-1.7,6.5-5.2c0-3.6-3.4-5.1-7.7-6.5
					c-3.8-1.2-7.9-2.5-7.9-7.1c0-4.3,3.7-6.4,7.6-6.4c2.8,0,6.3,1.1,8.4,2.2l-0.8,1.3c-2.3-1.2-5.4-2.1-7.6-2.1c-3.1,0-6,1.5-6,4.9
					c0,3.5,3.1,4.5,6.7,5.6C427,455,431.8,456.7,431.8,461.7z"/>
				<path fill="#D0B45F" stroke="#D0B45F" stroke-width="0.15" stroke-miterlimit="10" d="M488.2,460.9h-13.1l-2.7,7.1h-1.7
					l10.2-25.8h1.7l10.2,25.8H491L488.2,460.9z M475.7,459.4h11.9l-6-15.4L475.7,459.4z"/>
				<path fill="#D0B45F" stroke="#D0B45F" stroke-width="0.15" stroke-miterlimit="10" d="M513.1,443.7V468h-1.6v-24.3h-8.4v-1.5
					h18.5v1.5H513.1z"/>
				<path fill="#D0B45F" stroke="#D0B45F" stroke-width="0.15" stroke-miterlimit="10" d="M561,468v-25.8h1.6v24.3h13.1v1.5H561z"/>
				<path fill="#D0B45F" stroke="#D0B45F" stroke-width="0.15" stroke-miterlimit="10" d="M605.8,460.9h-13.1L590,468h-1.7
					l10.2-25.8h1.7l10.2,25.8h-1.7L605.8,460.9z M593.3,459.4h11.9l-6-15.4L593.3,459.4z"/>
				<path fill="#D0B45F" stroke="#D0B45F" stroke-width="0.15" stroke-miterlimit="10" d="M637.8,444.5l-6.2,23.5h-2l-7.1-25.8h1.7
					l6.4,24.2l6.3-24.2h1.9l6.3,24.1l6.4-24.1h1.7l-7.2,25.8h-2L637.8,444.5z"/>
			</g>
			<path fill="#D0B45F" stroke="#D0B45F" stroke-width="0.15" stroke-miterlimit="10" d="M702.4,499.7H97.6v-89.3h604.8V499.7z
				 M99.1,498.1h601.7v-86.2H99.1V498.1z"/>
		</g>
	</g>
</g>
<g>
	<path fill="#FFFFFF" d="M44.6,345.7c0,11.4-10.3,16.7-20.5,16.7c-8.9,0-18.5-3.9-24.1-7.3l2.9-4.5c5.4,3.2,14.1,6.7,21.4,6.7
		s14.4-3.6,14.4-11.2c0-8.2-8.3-11.3-18.8-14.8C11.1,328.5,1.4,325,1.4,314c0-10.5,8.8-16,19.2-16c7.3,0,16,2.8,21.4,5.6l-2.8,4.5
		c-5.5-2.9-13.1-5-18.5-5c-6.9,0-13.4,3.2-13.4,10.6c0,7.9,7.7,9.9,16.8,12.9C33.3,329.5,44.6,333.6,44.6,345.7z"/>
	<path fill="#FFFFFF" d="M83.2,304v57.3h-5.8V304H57.3V299h45.8v5.1H83.2z"/>
	<path fill="#FFFFFF" d="M168.6,330.2c0,17.6-7.1,32.2-26.6,32.2c-19.4,0-26.6-14.6-26.6-32.2c0-17.7,7.1-32.2,26.6-32.2
		C161.4,298,168.6,312.4,168.6,330.2z M162.6,330.2c0-14.9-5.1-27-20.6-27c-15.5,0-20.5,12.1-20.5,27c0,15,5,27,20.5,27
		C157.5,357.2,162.6,345.1,162.6,330.2z"/>
	<path fill="#FFFFFF" d="M190.2,299h5.8v36.8l30.8-36.8h7l-25.5,30.1l28.5,32.3h-7.1l-24.9-28.3l-8.9,10.5v17.7h-5.8V299z"/>
	<path fill="#FFFFFF" d="M254,361.4V299H292v5.1h-32.3v23.6h26.7v5h-26.7v23.6h32.8v5.1H254z"/>
	<path fill="#FFFFFF" d="M353.2,345.7c0,11.4-10.3,16.7-20.5,16.7c-8.9,0-18.5-3.9-24.1-7.3l2.9-4.5c5.4,3.2,14.1,6.7,21.4,6.7
		c7.3,0,14.4-3.6,14.4-11.2c0-8.2-8.3-11.3-18.8-14.8c-8.7-2.8-18.5-6.2-18.5-17.2c0-10.5,8.8-16,19.2-16c7.3,0,16,2.8,21.4,5.6
		l-2.8,4.5c-5.5-2.9-13.1-5-18.5-5c-6.9,0-13.4,3.2-13.4,10.6c0,7.9,7.7,9.9,16.8,12.9C342,329.5,353.2,333.6,353.2,345.7z"/>
	<path fill="#FFFFFF" d="M434.9,307.3l-14.3,54.1h-6.5L396.9,299h6.3l14.3,55.7L432,299h5.8l14.5,55.7l14.4-55.7h6.4l-17.4,62.4
		h-6.5L434.9,307.3z"/>
	<path fill="#FFFFFF" d="M526,345.1h-30.4l-6.1,16.2h-6.2l24.4-62.4h6.2l24.4,62.4H532L526,345.1z M497.4,340.2h26.7l-13.4-35.6
		L497.4,340.2z"/>
	<path fill="#FFFFFF" d="M595.8,353.6c-5.2,4.4-11.8,8.7-19.9,8.7c-12.5,0-23.9-9.5-23.9-32.2c0-22.6,11.5-32.2,24.2-32.2
		c9.6,0,17.9,5.2,24.2,9.8l-3.4,4.3c-4.7-3.3-12.4-8.8-20.5-8.8c-10.6,0-18.4,9.8-18.4,26.9c0,16.8,7.6,27.1,18.4,27.1
		c8.2,0,15.8-6.6,19.3-9.8v-14.6h-18.1v-4.9h23.8v33.4h-5.7V353.6z"/>
	<path fill="#FFFFFF" d="M629.6,307.6v53.8h-5.8V299h6.1l34.4,53.8V299h5.8v62.4h-6.1L629.6,307.6z"/>
	<path fill="#FFFFFF" d="M694.8,361.4V299h38.1v5.1h-32.3v23.6h26.7v5h-26.7v23.6h32.8v5.1H694.8z"/>
	<path fill="#FFFFFF" d="M776.6,334.2h-16.8v27.2H754V299h23.2c12.7,0,22.7,4.4,22.7,17.6c0,11.4-7.6,16.3-17.5,17.4l17.6,27.5h-6.6
		L776.6,334.2z M777.5,304h-17.7v25.2h17.3c9.8,0,16.8-3.5,16.8-12.7C793.9,307.3,786.9,304,777.5,304z"/>
</g>
</svg>
